<?xml version="1.0" encoding="utf-8"?>
<!-- Generator: Adobe Illustrator 23.0.1, SVG Export Plug-In . SVG Version: 6.00 Build 0)  -->
<svg version="1.1" id="Layer_1" xmlns="http://www.w3.org/2000/svg" xmlns:xlink="http://www.w3.org/1999/xlink" x="0px" y="0px"
	 viewBox="0 0 225.26 177.35" style="enable-background:new 0 0 225.26 177.35;" xml:space="preserve">
<style type="text/css">
	.st0{fill:#3C2DA7;}
</style>
<g>
	<path class="st0" d="M223.48,173.47L223.48,173.47L86.5,164.22c-11.88-0.8-23.1-3.31-33.35-7.45c-15.09-6.1-27.67-15.19-36.37-26.3
		c-9.48-12.1-14.29-26.18-14.29-41.85c0-39.74,30.21-69.88,75.18-75.01l145.82-9.85v0.01l2-0.11V1.61l-148,10
		c-24.75,2.81-46.02,13.37-59.89,29.64c-3.08,3.61-5.8,7.51-8.11,11.67c-1.73,3.12-3.23,6.38-4.49,9.78
		c-0.42,1.13-0.81,2.28-1.17,3.45c-2.18,6.98-3.34,14.5-3.34,22.47v0c0,33.67,21.94,57.9,51.91,70.01
		c4.06,1.64,8.21,3.01,12.43,4.12c2.81,0.74,5.66,1.37,8.52,1.88c2.87,0.52,5.75,0.92,8.65,1.22c1.45,0.15,2.9,0.27,4.36,0.37
		l139.12,9.4v-1.98L223.48,173.47z"/>
</g>
</svg>
